<svg xmlns="http://www.w3.org/2000/svg" width="151" height="67.651" viewBox="0 0 151 67.651"><g transform="translate(-111.211 -114.226)"><path d="M362.3,192.135l-.206,3.416a6.425,6.425,0,0,0-1.66-.744,6.691,6.691,0,0,0-1.808-.232,4.21,4.21,0,0,0-3.525,1.59,8.835,8.835,0,0,0,.039,9.091,4.364,4.364,0,0,0,3.639,1.616,5.885,5.885,0,0,0,1.708-.258,7.578,7.578,0,0,0,1.734-.793l.18,3.512a10.591,10.591,0,0,1-2.04.578,12.66,12.66,0,0,1-2.234.193,8.184,8.184,0,0,1-6.332-2.553,11.231,11.231,0,0,1-.018-13.72,7.975,7.975,0,0,1,6.21-2.566,10.85,10.85,0,0,1,2.15.219,12.786,12.786,0,0,1,2.163.652Zm9.143,11.293c-.162-.017-.333-.031-.508-.039s-.4-.013-.675-.013a3.559,3.559,0,0,0-2.159.552,1.891,1.891,0,0,0-.731,1.607,1.792,1.792,0,0,0,.477,1.327,1.76,1.76,0,0,0,1.309.482,2,2,0,0,0,1.725-.762,4.073,4.073,0,0,0,.561-2.382v-.771Zm3.889-1.41v5.019c0,.587.013,1.1.039,1.532s.066.85.127,1.244h-3.735l-.153-1.752a5.325,5.325,0,0,1-1.8,1.528,4.834,4.834,0,0,1-2.224.512,3.74,3.74,0,0,1-2.855-1.152,4.244,4.244,0,0,1-1.086-3.026,4.055,4.055,0,0,1,1.668-3.486,8.066,8.066,0,0,1,4.8-1.217h1.336v-.385a2.032,2.032,0,0,0-.67-1.655,2.988,2.988,0,0,0-1.962-.56,5.52,5.52,0,0,0-1.844.32,5.863,5.863,0,0,0-1.7.941l-.206-3.03a16.82,16.82,0,0,1,2.435-.7,11.473,11.473,0,0,1,2.264-.236q3.107,0,4.34,1.3t1.235,4.808Zm7.593-9.809V196.2h2.606v2.811h-2.606v5.68a3.806,3.806,0,0,0,.333,1.971,1.377,1.377,0,0,0,1.2.468,3.268,3.268,0,0,0,.539-.052c.206-.035.455-.083.744-.153v2.864c-.477.1-.933.166-1.362.215a10.751,10.751,0,0,1-1.2.07,4.3,4.3,0,0,1-3.271-1.033c-.626-.687-.942-2.063-.942-4.116v-5.912h-2.233V196.2h2.233v-2.759l3.967-1.235Zm10.378,6.568a1.686,1.686,0,0,0-1.533,1.1,9.3,9.3,0,0,0,0,6.262,1.624,1.624,0,0,0,3.07.013,7.252,7.252,0,0,0,.539-3.14,7.371,7.371,0,0,0-.53-3.149,1.676,1.676,0,0,0-1.546-1.086Zm0-2.864a5.9,5.9,0,0,1,4.659,1.835,9.283,9.283,0,0,1-.009,10.506,6.754,6.754,0,0,1-9.288,0,9.249,9.249,0,0,1-.009-10.5,5.883,5.883,0,0,1,4.646-1.839Zm.4-6.122h3.332l-4.024,4.7H391.2l2.5-4.7Zm8.4.342h3.968v19.68H402.1v-19.68Zm7.173,6.069h3.967v13.61h-3.967V196.2Zm0-5.859h3.967v3.547h-3.967v-3.547Zm16.295,6.227-.215,3.07a5.817,5.817,0,0,0-1.143-.46,4.275,4.275,0,0,0-1.143-.166,2.827,2.827,0,0,0-2.312.95,4.253,4.253,0,0,0-.788,2.781,5.609,5.609,0,0,0,.757,3.179,2.466,2.466,0,0,0,2.163,1.1,5.606,5.606,0,0,0,2.707-.705l.206,3.061a11.882,11.882,0,0,1-1.957.539,10.716,10.716,0,0,1-1.931.179,5.6,5.6,0,0,1-4.493-1.935,7.856,7.856,0,0,1-1.655-5.272,7.229,7.229,0,0,1,1.725-5.119,6.109,6.109,0,0,1,4.7-1.861,8.761,8.761,0,0,1,1.695.162,9.236,9.236,0,0,1,1.681.495Zm8.846,6.857c-.162-.017-.333-.031-.508-.039s-.4-.013-.675-.013a3.559,3.559,0,0,0-2.159.552,1.891,1.891,0,0,0-.731,1.607,1.791,1.791,0,0,0,.477,1.327,1.76,1.76,0,0,0,1.309.482,2,2,0,0,0,1.725-.762,4.075,4.075,0,0,0,.56-2.382v-.771Zm3.889-1.41v5.019c0,.587.013,1.1.039,1.532s.066.85.127,1.244h-3.736l-.153-1.752a5.327,5.327,0,0,1-1.8,1.528,4.834,4.834,0,0,1-2.224.512,3.74,3.74,0,0,1-2.855-1.152,4.243,4.243,0,0,1-1.086-3.026,4.055,4.055,0,0,1,1.668-3.486,8.066,8.066,0,0,1,4.8-1.217h1.335v-.385a2.031,2.031,0,0,0-.67-1.655,2.985,2.985,0,0,0-1.962-.56,5.52,5.52,0,0,0-1.844.32,5.865,5.865,0,0,0-1.7.941l-.206-3.03a16.813,16.813,0,0,1,2.435-.7,11.469,11.469,0,0,1,2.264-.236q3.107,0,4.34,1.3T438.3,202.018Z" transform="translate(-176.486 -55.979)" fill="#00003c" fill-rule="evenodd"/><path d="M354.9,284.1a3.245,3.245,0,0,0-.344-1.645,1.073,1.073,0,0,0-.965-.576,1.054,1.054,0,0,0-.974.663,5.839,5.839,0,0,0-.006,3.886,1.053,1.053,0,0,0,.979.654,1.073,1.073,0,0,0,.965-.576,3.225,3.225,0,0,0,.344-1.637V284.1Zm0-7.862h2.552v12.573h-2.4c-.022-.2-.036-.409-.045-.632s-.014-.462-.014-.711a3.056,3.056,0,0,1-1,1.152,2.444,2.444,0,0,1-1.357.375,2.563,2.563,0,0,1-2.258-1.167,7.6,7.6,0,0,1-.005-6.743,2.615,2.615,0,0,1,2.305-1.156,2.3,2.3,0,0,1,1.245.327,3.119,3.119,0,0,1,.968,1.069v-5.089Zm6.7,8.914a2.392,2.392,0,0,0,.627,1.55,2.036,2.036,0,0,0,1.486.515,4.066,4.066,0,0,0,1.133-.165,5.472,5.472,0,0,0,1.156-.507l.081,1.863a6.952,6.952,0,0,1-1.345.436,6.479,6.479,0,0,1-1.377.151,4.213,4.213,0,0,1-3.181-1.175,4.59,4.59,0,0,1-1.13-3.307,5.1,5.1,0,0,1,1.03-3.321,3.306,3.306,0,0,1,2.694-1.262,3.353,3.353,0,0,1,2.762,1.214,5.31,5.31,0,0,1,.985,3.433c0,.154,0,.268,0,.344s-.009.151-.014.221l-4.9.008Zm2.552-1.41c0-.087,0-.173.008-.257s.008-.131.008-.137a2.107,2.107,0,0,0-.319-1.245,1.055,1.055,0,0,0-.9-.442,1.119,1.119,0,0,0-.993.5,3.265,3.265,0,0,0-.4,1.581Zm8.533-6.58h6.346v1.947h-3.676v2.887h3.542v1.964h-3.542v4.851h-2.669v-11.65Zm11.516,4.6a1.077,1.077,0,0,0-.979.7,5.943,5.943,0,0,0,0,4,1.038,1.038,0,0,0,1.961.009,4.636,4.636,0,0,0,.344-2.006,4.709,4.709,0,0,0-.339-2.012,1.071,1.071,0,0,0-.988-.694Zm0-1.83a3.768,3.768,0,0,1,2.977,1.172,5.931,5.931,0,0,1-.005,6.712,4.315,4.315,0,0,1-5.934,0,5.91,5.91,0,0,1-.005-6.706,3.758,3.758,0,0,1,2.968-1.175Zm10.609.033v2.331a.512.512,0,0,1-.1-.017,2.959,2.959,0,0,0-.509-.081,1.628,1.628,0,0,0-1.388.579,3.08,3.08,0,0,0-.439,1.855v4.18h-2.552V282c0-.5-.005-.887-.02-1.147s-.033-.509-.061-.738h2.33a.7.7,0,0,1,.006.089c.045.526.067.909.067,1.156v.263a2.6,2.6,0,0,1,.884-1.237,2.184,2.184,0,0,1,1.346-.456c.092,0,.224.009.392.025a.142.142,0,0,0,.042.008Zm4.932-2.4v2.552H401.4v1.8h-1.665v3.629a2.433,2.433,0,0,0,.213,1.259.88.88,0,0,0,.764.3,2.1,2.1,0,0,0,.344-.034c.132-.022.291-.053.476-.1v1.83c-.305.062-.6.107-.87.137a6.858,6.858,0,0,1-.77.045,2.746,2.746,0,0,1-2.09-.66,4.083,4.083,0,0,1-.6-2.63V281.91h-1.427v-1.8H397.2v-1.763l2.535-.789Zm7.37,7.168c-.1-.011-.213-.02-.325-.025s-.255-.008-.431-.008a2.275,2.275,0,0,0-1.38.353,1.209,1.209,0,0,0-.467,1.027,1.145,1.145,0,0,0,.3.848,1.125,1.125,0,0,0,.837.308,1.275,1.275,0,0,0,1.1-.487,2.6,2.6,0,0,0,.358-1.522v-.492Zm2.484-.9v3.206c0,.375.008.7.025.979s.042.542.081.794h-2.386l-.1-1.119a3.4,3.4,0,0,1-1.153.976,3.086,3.086,0,0,1-1.421.327,2.389,2.389,0,0,1-1.824-.736,2.711,2.711,0,0,1-.694-1.933,2.59,2.59,0,0,1,1.066-2.227,5.153,5.153,0,0,1,3.067-.778h.853v-.246a1.3,1.3,0,0,0-.428-1.058,1.909,1.909,0,0,0-1.254-.358,3.526,3.526,0,0,0-1.178.2,3.741,3.741,0,0,0-1.088.6l-.131-1.936a10.789,10.789,0,0,1,1.555-.448,7.343,7.343,0,0,1,1.446-.151,3.745,3.745,0,0,1,2.773.828,4.508,4.508,0,0,1,.789,3.072Zm1.981-7.593H414.1v12.573h-2.535V276.236Zm6.681,8.914a2.392,2.392,0,0,0,.627,1.55,2.035,2.035,0,0,0,1.486.515,4.066,4.066,0,0,0,1.133-.165,5.478,5.478,0,0,0,1.156-.507l.081,1.863a6.962,6.962,0,0,1-1.346.436,6.474,6.474,0,0,1-1.376.151,4.212,4.212,0,0,1-3.181-1.175,4.589,4.589,0,0,1-1.13-3.307,5.1,5.1,0,0,1,1.03-3.321,3.306,3.306,0,0,1,2.694-1.262,3.353,3.353,0,0,1,2.761,1.214,5.31,5.31,0,0,1,.985,3.433c0,.154,0,.268,0,.344s-.008.151-.014.221l-4.9.008Zm2.551-1.41c0-.087,0-.173.009-.257s.008-.131.008-.137a2.105,2.105,0,0,0-.319-1.245,1.055,1.055,0,0,0-.9-.442,1.12,1.12,0,0,0-.993.5,3.265,3.265,0,0,0-.4,1.581Zm3.519-3.626h5.968V282.3l-3.341,4.566h3.357v1.947h-6.026v-2.247l3.29-4.5h-3.249v-1.947Zm11.891,4.616c-.1-.011-.213-.02-.324-.025s-.255-.008-.431-.008a2.274,2.274,0,0,0-1.379.353,1.209,1.209,0,0,0-.467,1.027,1.145,1.145,0,0,0,.305.848,1.124,1.124,0,0,0,.837.308,1.275,1.275,0,0,0,1.1-.487,2.6,2.6,0,0,0,.358-1.522v-.492Zm2.484-.9v3.206c0,.375.009.7.025.979s.042.542.081.794h-2.387l-.1-1.119a3.4,3.4,0,0,1-1.153.976,3.085,3.085,0,0,1-1.421.327,2.39,2.39,0,0,1-1.824-.736,2.712,2.712,0,0,1-.694-1.933,2.59,2.59,0,0,1,1.066-2.227,5.152,5.152,0,0,1,3.066-.778h.854v-.246a1.3,1.3,0,0,0-.428-1.058,1.908,1.908,0,0,0-1.253-.358,3.525,3.525,0,0,0-1.178.2,3.737,3.737,0,0,0-1.088.6l-.132-1.936a10.771,10.771,0,0,1,1.556-.448,7.339,7.339,0,0,1,1.446-.151,3.744,3.744,0,0,1,2.773.828A4.506,4.506,0,0,1,438.7,283.829Z" transform="translate(-176.592 -120.017)" fill="#00003c" fill-rule="evenodd"/><path d="M114.4,155.507c-3.589-10.076-3.734-21.478-2.459-34.125l.078-.767.761.118c3.327.516,8.549.075,13.574-1.167,4.369-1.08,8.558-2.76,11.166-4.932l.489-.407.709.681v66.549l-.729.42c-10.848-6.29-19.312-14.361-23.59-26.369Zm8.884-24.119-2.49,1.524.715.337,1.775-1.861Zm-1.228-.788-5.867,1.492,1.536.632,4.331-2.124Zm6.915.788,1.775,1.861.715-.337-2.49-1.524Zm1.228-.788,4.331,2.124,1.536-.632L130.2,130.6Zm-3.87-4.026-.2-.656-.976,3.179.18-.588-1.635-.866.866,1.635-2.591.8,2.591.8L123.7,132.5l1.635-.867-.18-.588.976,3.179.976-3.179-.18.588,1.635.867-.867-1.635-.588.18,3.179-.976L127.1,129.1l.588.18.867-1.634-1.635.866.18.588-.775-2.522Zm.4,2.753-.606-1.973-.639,2.08-2.08.639,2.08.639.639,2.08.639-2.08,2.08-.639-2.08-.639-.033-.107Zm-.608,13.595h.074a9.087,9.087,0,0,1,2.36.306,7.967,7.967,0,0,1,1.992.83l.117,1.246,1.614-1.318v-5.676l-.125-.063a6.894,6.894,0,0,0-.944-.369c-.376-.121-.808-.239-1.272-.346l-.276-.064V141.1l-1.454-.6v-3.288l-.2-.025c-.333-.043-.664-.077-.983-.1s-.615-.034-.9-.034-.593.012-.9.034-.651.057-.984.1l-.2.025V140.5l-1.454.6v-3.627l-.275.064c-.464.107-.9.225-1.272.346a6.892,6.892,0,0,0-.944.369l-.125.063v5.676l1.615,1.318.117-1.246a7.961,7.961,0,0,1,1.992-.83,9.119,9.119,0,0,1,2.36-.307Zm4.024,1.688-.01-.122-.109-.058a8.1,8.1,0,0,0-1.879-.715,8.542,8.542,0,0,0-4.049,0,8.1,8.1,0,0,0-1.879.715l-.109.058q-.684,8.377-1.357,16.755h3.74v-3.959a1.63,1.63,0,0,1,3.259,0v3.959H131.5l-1.347-16.633Zm-8.257,8.193H123.5v1.271h-1.708l-.544,6.719h2.8v-3.509a2.08,2.08,0,0,1,4.16,0v3.509h2.8l-.557-6.877h-.758v-1.271h.655l-.045-.556h-2v-1.271h1.9l-.49-6.048a7.653,7.653,0,0,0-1.665-.618,8.151,8.151,0,0,0-3.838,0,7.656,7.656,0,0,0-1.665.618l-.651,8.034Zm4.027-5.6v1.271h2.82V147.2Zm.136-4.73c.017,0,.137,0,.143,0a9.555,9.555,0,0,1,2.476.322,8.391,8.391,0,0,1,2.206.939l.1.059.06.633.8-.65v-5.185a7.246,7.246,0,0,0-.756-.284c-.287-.092-.611-.184-.96-.27v3.73l-2.355-.966v-3.193c-.252-.03-.506-.054-.76-.072-.294-.02-.588-.032-.874-.032s-.58.011-.874.032c-.254.018-.508.042-.76.072V140.8l-2.355.966v-3.73c-.349.086-.673.178-.96.27a7.261,7.261,0,0,0-.756.284v5.185l.8.65.059-.633.1-.059a8.384,8.384,0,0,1,2.206-.939,9.552,9.552,0,0,1,2.476-.322Z" fill="#00003c" fill-rule="evenodd"/><path d="M212.136,181.83l-.449-.212V115.107l.777-.663.421.351a31.464,31.464,0,0,0,7.922,4.156c3.745,1.456,7.407,2.485,8.479,2.319l.619,1.322-.791,1.966-.8-1.923a46.335,46.335,0,0,1-15.161-5.834v63.1a61.731,61.731,0,0,0,8.637-6.211,46.743,46.743,0,0,0,6.812-7.259l1.114-1.143.547,1.354-.241.327a48.022,48.022,0,0,1-7.276,7.825,64.339,64.339,0,0,1-9.93,7l-.331.192Z" transform="translate(-74.432 -0.161)" fill="#00003c" fill-rule="evenodd"/><path d="M236.247,217.307a.965.965,0,1,1,1.795-.712l3.4,8.561,10.88-27.037H230.606l1.063,2.721a.967.967,0,1,1-1.8.7l-1.578-4.039h0a.966.966,0,0,1,.9-1.317H253.7a.967.967,0,0,1,.95,1.325l-12.316,30.606h0a.965.965,0,0,1-1.793,0Z" transform="translate(-86.683 -60.715)" fill="#00003c" fill-rule="evenodd"/><path d="M246.7,152.193a.966.966,0,0,1-1.795.712l-3.4-8.561-10.88,27.038h21.715l-1.063-2.721a.967.967,0,1,1,1.8-.7l1.578,4.039h0a.966.966,0,0,1-.9,1.317H229.244a.967.967,0,0,1-.95-1.326l12.316-30.606h0a.965.965,0,0,1,1.793,0Z" transform="translate(-86.683 -19.668)" fill="#cb9a51" fill-rule="evenodd"/></g></svg>